# xmcd CD database file
#
# Track frame offsets:
#	150
#	32051
#	67765
#	84273
#	97415
#	122935
#	153074
#	185195
#	210397
#	226480
#
# Disc length: 3297 seconds
#
# Revision: 0
# Processed by: cddbd v1.5PL3 Copyright (c) Steve Scherf et al.
# Submitted via: CDex 1.51
#
DISCID=800cdf0a
DTITLE=James Harry - Silver Stream
DYEAR=1998
DGENRE=New Age
TTITLE0=Silver Stream
TTITLE1=Clear Waters
TTITLE2=Pathfinder
TTITLE3=Greenwood
TTITLE4=Sanctuary Rest
TTITLE5=Through the Valley
TTITLE6=Downstream
TTITLE7=The Final Journey
TTITLE8=Lost to the River
TTITLE9=Silver River
EXTD=YEAR: 1998
EXTT0=
EXTT1=
EXTT2=
EXTT3=
EXTT4=
EXTT5=
EXTT6=
EXTT7=
EXTT8=
EXTT9=
PLAYORDER=
